<?xml version="1.0" encoding="iso-8859-1"?>
<!-- Generator: Adobe Illustrator 26.3.0, SVG Export Plug-In . SVG Version: 6.00 Build 0)  -->
<svg version="1.1" id="Calque_1" xmlns="http://www.w3.org/2000/svg" xmlns:xlink="http://www.w3.org/1999/xlink" x="0px" y="0px"
	 viewBox="0 0 2000 2000" style="enable-background:new 0 0 2000 2000;" xml:space="preserve">
<g>
	<linearGradient id="SVGID_1_" gradientUnits="userSpaceOnUse" x1="307.722" y1="276.6362" x2="1889.6488" y2="1923.4728">
		<stop  offset="0.0625" style="stop-color:#D4AF37"/>
		<stop  offset="0.9355" style="stop-color:#FFD700"/>
	</linearGradient>
	<path style="fill:url(#SVGID_1_);" d="M929.398,1933.228c-185.512-1.888-406.334-92.795-585.994-271.289
		C141.787,1461.631,50.237,1214.584,69.448,930.645c15.573-230.176,106.225-430.376,270.584-591.961
		C539.217,142.859,781.43,49.323,1062.751,66.332c234.411,14.173,435.57,108.087,599.689,272.327
		c201.089,201.238,290.401,449.159,270.466,732.207c-16.359,232.283-110.452,433.966-277.959,595.295
		C1473.828,1840.6,1255.026,1933.63,929.398,1933.228z M999.432,1913.171c516.277-2.534,903.041-405.826,914.971-884.404
		c13.458-539.852-405.776-943.593-911.966-943.497C487.444,85.369,98.806,489.045,87.871,975.099
		C75.833,1510.197,498.819,1911.025,999.432,1913.171z"/>
	
		<linearGradient id="SVGID_00000054263992221160292900000013639697267399460799_" gradientUnits="userSpaceOnUse" x1="330.3373" y1="333.1545" x2="1926.4404" y2="1915.0958">
		<stop  offset="0.0625" style="stop-color:#D4AF37"/>
		<stop  offset="0.9355" style="stop-color:#FFD700"/>
	</linearGradient>
	<path style="fill:url(#SVGID_00000054263992221160292900000013639697267399460799_);" d="M1065.261,1883.02
		c-270.436,19.648-501.486-68.468-690.983-257.185c-174.036-173.32-264.862-387.673-261.145-632.874
		c7.454-491.653,386.479-882.314,901.369-881.845c239.832,0.219,450.609,92.835,620.303,265.949
		c168.605,172.003,254.03,381.502,254.582,620.408c0.504,218.398-72.06,414.377-217.608,580.428
		C1510.918,1761.419,1309.069,1864.627,1065.261,1883.02z M135.508,997.621c-1.587,489.396,389.461,841.187,805.364,866.538
		c237.9,14.501,449.854-55.124,628.641-210.42c181.549-157.695,283.992-360.653,295.892-601.287
		c27.38-553.68-399.516-892.67-804.217-918.743c-243.596-15.694-458.792,57.796-639.906,221.015
		C231.096,526.12,137.356,742.185,135.508,997.621z"/>
	
		<linearGradient id="SVGID_00000021092709000759339820000002515898563270887076_" gradientUnits="userSpaceOnUse" x1="465.4972" y1="312.8877" x2="1717.1365" y2="1915.7246">
		<stop  offset="0.0625" style="stop-color:#D4AF37"/>
		<stop  offset="0.9355" style="stop-color:#FFD700"/>
	</linearGradient>
	<path style="fill:url(#SVGID_00000021092709000759339820000002515898563270887076_);" d="M159.908,995.055
		c-5.239-442.289,367.355-866.122,893.207-836.525c221.627,12.474,411.669,101.014,563.13,263.794
		c150.937,162.217,229.338,357.832,229.063,577.57c-0.286,228.884-83.723,430.963-246.38,594.476
		c-163.028,163.887-366.156,247.536-595.615,248.723c-200.647,1.037-385.383-63.149-540.21-195.132
		C262.528,1476.978,160.834,1258.74,159.908,995.055z M1823.411,999.242c-4.966-460.007-354.81-819.843-819.432-821.914
		c-465.498-2.076-818.982,365.096-824.113,811.715c-5.394,469.48,362.47,832.221,822.734,831.225
		C1460.883,1819.276,1819.946,1461.575,1823.411,999.242z"/>
	
		<linearGradient id="SVGID_00000167366380726330416160000003127826365286513551_" gradientUnits="userSpaceOnUse" x1="557.178" y1="984.8311" x2="1301.8761" y2="1710.3055">
		<stop  offset="0" style="stop-color:#D4AF37"/>
		<stop  offset="1" style="stop-color:#FFD700"/>
	</linearGradient>
	<path style="fill:url(#SVGID_00000167366380726330416160000003127826365286513551_);" d="M681.195,1454.498
		c4.604-15.981,12.772-31.203,12.818-46.45c0.786-258.813,0.563-517.629,0.563-776.444c0-12.016,0-24.031,0-37.788
		c42.877,0,83.363,0,128.834,0c0,9.847,0,20.506,0,31.164c0,265.948,0.104,531.896-0.278,797.844
		c-0.021,14.785-1.157,30.822-6.906,44.061c-9.238,21.271-13.304,38.284,4.7,58.266c6.336,7.033,5.651,29.299-0.867,36.755
		c-9.292,10.629-31.037,23.019-40.211,18.839c-28.902-13.168-51.682,3.219-76.711,7.669c-25.468,4.528-50.608,10.886-76.684,16.616
		c30.907,26.916,69.29,38.465,109.807,45.136c91.366,15.043,174.75-4.01,251.85-55.366c8.189-5.455,27.768-1.726,37.74,4.56
		c64.059,40.375,133.888,59.177,208.866,56.45c58.44-2.125,110.622-25.068,158.766-57.375c6.65-4.462,13.247-9.031,20.151-13.069
		c2.189-1.28,5.299-0.996,7.988-1.428c1.651,2.323,3.303,4.647,4.955,6.97c-17.782,11.747-34.845,24.794-53.465,35.027
		c-104.896,57.649-215.158,93.661-336.838,98.744c-160.934,6.724-306.264-34.513-440.474-120.656
		c-32.601-20.925-65.185-41.991-98.847-61.119c-20.429-11.609-45.268-16.397-63.957-29.958
		c-34.195-24.812-64.14-87.863-33.017-130.339c5.673-7.742,12.78-17.536,21.042-19.801c58.224-15.966,119.337-35.119,174.403,1.301
		C626.991,1384.987,649.218,1419.903,681.195,1454.498z M1234.32,1672.074c-85.561,1.758-161.617-25.831-233.549-70.659
		c-68.665,51.076-147.91,68.87-232.527,70.154C923.598,1724.949,1078.79,1725.678,1234.32,1672.074z M450.382,1518.166
		c2.938-1.554,5.876-3.108,8.813-4.662c-17.336-51.105-17.142-100.626,14.855-146.832c-46.807-16.25-85.18,37.727-69.243,71.207
		C417.998,1465.588,435.044,1491.473,450.382,1518.166z M520.71,1356.667c24.21,25.27,52.746,49.951,74.808,79.445
		c24.482,32.73,21.909,34.642,66.052,26.598C623.144,1412.823,593.677,1352.881,520.71,1356.667z M460.128,1411.633
		c22.34,0,35.181,0,48.023,0c13.714,0,27.428,0,41.143,0c1.062-3.034,2.125-6.068,3.187-9.102
		c-19.117-10.503-37.373-24.657-57.836-29.45C487.846,1371.489,475.382,1393.934,460.128,1411.633z M797.031,1507.472
		c-14.827,23.704-24.207,38.699-33.586,53.694c2.413,3.004,4.826,6.008,7.239,9.013c15.224-7.042,31.261-12.943,44.714-22.47
		C817.22,1546.418,806.076,1526.933,797.031,1507.472z"/>
	
		<linearGradient id="SVGID_00000182490848110560170370000013651849797106096810_" gradientUnits="userSpaceOnUse" x1="973.8379" y1="401.209" x2="1901.8252" y2="1833.9945">
		<stop  offset="0.0625" style="stop-color:#D4AF37"/>
		<stop  offset="0.9994" style="stop-color:#FFD700"/>
	</linearGradient>
	<path style="fill:url(#SVGID_00000182490848110560170370000013651849797106096810_);" d="M1003.088,413.275
		c-140.333-90.383-281.191-99.661-422.06,4.864c-1.367-3.677-2.734-7.355-4.102-11.032c16.427-11.681,31.918-25.032,49.429-34.779
		c141.161-78.575,293.074-113.357,453.63-97.197c112.472,11.32,218.187,47.835,314.026,110.64
		c19.581,12.832,45.716,15.722,72.432,24.359c0,63.626,0,132.623,0,200.269c39.188,24.089,69.202,11.218,73.807-33.269
		c3.793-36.642,6.366-75.143-23.984-105.368c-3.311-3.298-2.536-10.674-5.175-23.594c46.115,32.982,88.245,55.381,98.858,110.711
		c8.165,42.569-21.512,97.076-71.048,89.025c-22.246-3.616-45.93,1.564-71.32,2.874c0,40.783,0,77.341,0,113.899
		c0,126.398,0.892,252.806-0.429,379.19c-0.546,52.263,5.436,68.491,70.228,72.081c4.049,0.224,8.09,0.57,16.026,1.138
		c0,36.356,0.915,72.767-0.865,109.046c-0.311,6.339-11.025,14.911-18.617,17.448c-9.102,3.042-20.009,0.718-30.919,7.851
		c11.91,1.718,24.072,5.893,35.684,4.709c40.402-4.119,64.23,14.971,75.292,61.933c10.726,45.533-48.507,123.708-98.082,125.463
		c8.303-33.293,17.02-67.318,25.088-101.496c1.358-5.753,1.909-13.184-0.607-18.084c-8.456-16.47-16.027-42.556-28.506-45.462
		c-15.201-3.54-40.776,7.939-51.792,21.223c-34.39,41.475-64.721,86.391-95.309,130.873
		c-27.587,40.116-60.289,64.295-112.068,47.142c-7.582-2.512-17.628,1.618-26.364,3.47c-22.206,4.707-36.219-5.479-47.403-23.473
		c-11.322-18.217-5.965-35.105,8.205-45.551c15.671-11.551,35.573-17.397,57.008-27.286c-1.84,27.416-3.088,46.007-4.336,64.598
		c2.405,1.766,4.81,3.533,7.215,5.3c14.279-15.434,30.04-29.77,42.53-46.529c26.269-35.248,49.431-72.846,76.458-107.47
		c28.378-36.354,64.651-60.87,114.536-57.286c-100.02-26.313-146.587-94.877-147.467-192.824
		c-1.649-183.467-2.522-366.996,0.879-550.415c0.918-49.523-21.205-83.522-47.844-118.525
		c-10.273-13.499-22.547-25.485-33.909-38.16c-3.933,1.485-7.866,2.969-11.799,4.454c1.095,20.151,2.19,40.303,3.58,65.89
		c-18.357-8.301-37.421-14.658-53.974-25.007c-18.867-11.794-22.827-29.717-10.788-49.746
		c12.505-20.804,30.232-27.838,54.121-22.801c10.287,2.169,21.392,0.133,31.981,1.309c20.852,2.316,41.603,5.541,64.164,8.632
		c-3.152-37.403,31.662-19.656,53.388-25.116C1308.375,327.542,1123.462,321.859,1003.088,413.275z M1234.548,326.34
		c-155.466-54.975-310.723-54.841-466.32-0.227c84.891,0.959,164.201,19.264,232.83,70.08
		C1072.938,350.469,1149.621,325.347,1234.548,326.34z M1263.368,1568.259c52.855,11.623,75.9-26.514,96.567-55.187
		c39.292-54.513,66.644-117.975,135.683-154.739c-55.162-6.063-91.005,14.54-118.848,50.439
		c-36.071,46.509-70.826,94.035-105.853,141.34C1267.66,1554.512,1266.523,1560.473,1263.368,1568.259z M1532.263,1371.588
		c32.448,47.325,23.842,94.815,9.623,143.465c43.553-21.074,68.804-70.463,53.073-109.819
		C1585.804,1382.333,1568.164,1363.015,1532.263,1371.588z M1524.826,633.66c44.966,2.31,65.896-9.127,71.382-37.35
		c7.585-39.026-14.636-85.004-47.361-97.997C1556.958,555.91,1561.41,589.472,1524.826,633.66z M1269.603,426.94
		c-0.784,2.625-1.567,5.251-2.351,7.876c20.456,26.975,40.912,53.949,64.67,85.28c0.298-33.543,9.338-63.835-21.975-81.27
		C1298.005,432.175,1283.137,430.747,1269.603,426.94z M1225.099,1503.037c-19.377,8.821-43.13,15.619-38.504,41.776
		c4.382,24.78,26.149,20.958,42.798,18.343C1227.916,1542.471,1226.567,1523.587,1225.099,1503.037z M1236.67,426.261
		c-18.643,8.491-34.654,15.783-50.665,23.076c10.281,16.074,20.562,32.148,31.97,49.983
		C1224.811,472.605,1229.775,453.206,1236.67,426.261z"/>
	
		<linearGradient id="SVGID_00000145746673316487813010000014063086544669367438_" gradientUnits="userSpaceOnUse" x1="815.3873" y1="698.2021" x2="1570.478" y2="1464.6595">
		<stop  offset="0.0625" style="stop-color:#D4AF37"/>
		<stop  offset="1" style="stop-color:#FFD700"/>
	</linearGradient>
	<path style="fill:url(#SVGID_00000145746673316487813010000014063086544669367438_);" d="M1262.984,859.9
		c-47.906,0-88.38,0-132.826,0c0-30.824,0.189-60.984-0.05-91.14c-0.267-33.611-11.941-47.549-39.785-48.268
		c-44.295-1.144-57.585,7.369-57.875,45.351c-1.058,138.544-0.858,277.103-0.074,415.651c0.164,28.977,20.95,35.009,46.342,34.748
		c24.83-0.255,45.037-4.196,45.225-34.761c0.249-40.493,0.061-80.989,0.061-123.013c43.276,0,83.757,0,129.164,0
		c-7.174,67.106,16.54,136.44-19.07,201.147c-29.468,53.546-76.324,80.611-136.911,84.7c-58.851,3.972-112.095-6.823-153.547-53.893
		c-24.974-28.358-39.796-60.682-40.06-97.542c-1.014-141.601-2.747-283.267,0.468-424.803
		c1.919-84.471,33.817-145.343,121.621-172.582c94.491-29.314,202.25,20.149,223.203,107.482
		C1260.704,752.3,1258.538,804.961,1262.984,859.9z"/>
	
		<linearGradient id="SVGID_00000054251938899802874520000009478816542766893205_" gradientUnits="userSpaceOnUse" x1="569.4655" y1="481.1905" x2="1852.3483" y2="1836.5774">
		<stop  offset="0.0625" style="stop-color:#D4AF37"/>
		<stop  offset="0.9355" style="stop-color:#FFD700"/>
	</linearGradient>
	<path style="fill:url(#SVGID_00000054251938899802874520000009478816542766893205_);" d="M494.517,454.095
		c-40.526,63.062-50.283,118.957-3.156,175.818c55.753-17.592,82.773-62.89,112.001-106.951
		c19.862-29.943,43.745-57.221,65.577-85.883c16.95-22.254,40.517-24.463,65.603-22.168c19.002,1.738,37.922,4.652,56.953,5.717
		c31.742,1.776,50.486,32.851,30.083,56.599c-14.847,17.282-38.94,26.668-64.1,42.927c2.148-30.565,3.634-51.723,5.121-72.881
		c-3.424-1.809-6.849-3.618-10.273-5.427c-23.223,29.113-46.739,58-69.589,87.401c-23.907,30.762-44.047,65.177-71.535,92.238
		c-32.342,31.838-73.456,43.252-118.609,23.632c-3.789-1.646-9.148-1.469-13.263-0.314c-29.387,8.247-55.082,0.241-72.529-22.995
		c-21.909-29.178-25.41-63.259-6.652-95.373C419.883,492.644,447.255,466.334,494.517,454.095z M513.774,637.386
		c36.94,6.619,69.39-1.494,93.432-29.182c21.591-24.865,40.745-51.882,60.306-78.439c23.958-32.527,47.222-65.563,70.786-98.378
		c-18.372-3.493-37.342-4.936-47.363,3.811c-23.386,20.413-45.943,43.519-62.552,69.524
		C596.63,554.435,568.867,606.597,513.774,637.386z M461.04,483.912c-50.719,36.611-67.999,74.799-51.595,114.131
		c10.12,24.265,27.258,37.087,55.897,28.615C442.506,580.265,443.721,532.822,461.04,483.912z M773.426,434.068
		c1.474,19.996,2.878,39.039,5.135,69.654c15.82-20.262,35.428-34.114,36.055-48.773
		C815.597,432.02,793.004,430.467,773.426,434.068z"/>
</g>
</svg>
